<?xml version="1.0" encoding="UTF-8"?>
<svg xmlns="http://www.w3.org/2000/svg" xmlns:xlink="http://www.w3.org/1999/xlink" viewBox="0 0 800 600">
  <defs>
    <style>
      .cls-1 {
        fill: url(#_未命名的渐变_30-3);
      }

      .cls-2 {
        fill: url(#_未命名的渐变_43);
      }

      .cls-3 {
        fill: url(#_未命名的渐变_36);
      }

      .cls-4 {
        fill: url(#_未命名的渐变_123-3);
      }

      .cls-5 {
        fill: url(#_未命名的渐变_123-2);
      }

      .cls-6 {
        fill: url(#_未命名的渐变_123);
      }

      .cls-7 {
        fill: url(#_未命名的渐变_33);
      }

      .cls-8 {
        fill: url(#_未命名的渐变_40);
      }

      .cls-9 {
        fill: url(#_未命名的渐变_30-2);
      }

      .cls-10 {
        fill: url(#_未命名的渐变_30);
      }
    </style>
    <linearGradient id="_未命名的渐变_30" data-name="未命名的渐变 30" x1="533.77" y1="436.3" x2="366.87" y2="147.22" gradientUnits="userSpaceOnUse">
      <stop offset="0" stop-color="#b47824"/>
      <stop offset="1" stop-color="#48484b"/>
    </linearGradient>
    <linearGradient id="_未命名的渐变_30-2" data-name="未命名的渐变 30" x1="451.48" y1="483.81" x2="284.58" y2="194.73" xlink:href="#_未命名的渐变_30"/>
    <linearGradient id="_未命名的渐变_30-3" data-name="未命名的渐变 30" x1="613.83" y1="390.08" x2="446.93" y2="101" xlink:href="#_未命名的渐变_30"/>
    <linearGradient id="_未命名的渐变_43" data-name="未命名的渐变 43" x1="341.87" y1="151.3" x2="350.24" y2="165.8" gradientUnits="userSpaceOnUse">
      <stop offset="0" stop-color="#1d547f"/>
      <stop offset="1" stop-color="#4e4a4a"/>
    </linearGradient>
    <linearGradient id="_未命名的渐变_40" data-name="未命名的渐变 40" x1="415.27" y1="151.11" x2="423.64" y2="165.61" gradientUnits="userSpaceOnUse">
      <stop offset="0" stop-color="#1d547f"/>
      <stop offset="1" stop-color="#5a5044"/>
    </linearGradient>
    <linearGradient id="_未命名的渐变_36" data-name="未命名的渐变 36" x1="490.9" y1="64.3" x2="499.27" y2="78.8" gradientUnits="userSpaceOnUse">
      <stop offset="0" stop-color="#1d547f"/>
      <stop offset="1" stop-color="#4c4a4a"/>
    </linearGradient>
    <linearGradient id="_未命名的渐变_33" data-name="未命名的渐变 33" x1="251.15" y1="291.24" x2="259.51" y2="305.73" gradientUnits="userSpaceOnUse">
      <stop offset="0" stop-color="#1d547f"/>
      <stop offset="1" stop-color="#665640"/>
    </linearGradient>
    <linearGradient id="_未命名的渐变_123" data-name="未命名的渐变 123" x1="355.53" y1="139.38" x2="522.43" y2="428.46" gradientUnits="userSpaceOnUse">
      <stop offset="0" stop-color="#5497bf"/>
      <stop offset="1" stop-color="#373434"/>
    </linearGradient>
    <linearGradient id="_未命名的渐变_123-2" data-name="未命名的渐变 123" x1="273.24" y1="186.89" x2="440.14" y2="475.97" xlink:href="#_未命名的渐变_123"/>
    <linearGradient id="_未命名的渐变_123-3" data-name="未命名的渐变 123" x1="435.59" y1="93.16" x2="602.49" y2="382.24" xlink:href="#_未命名的渐变_123"/>
  </defs>
  <g id="back">
    <g>
      <path class="cls-10" d="M410.66,166.27c1.91,4.61,3.82,9.22,5.72,13.82l13.56,32.77c5.44,13.14,10.88,26.28,16.32,39.42,4.56,11.02,9.12,22.04,13.69,33.06,1.99,4.8,4.06,9.58,5.97,14.41.93,2.35,1.51,4.85,1.86,7.34l-.54-3.99c.39,3.03.4,6.07,0,9.1l.54-3.99c-.4,2.91-1.17,5.73-2.28,8.45l1.51-3.58c-1.16,2.74-2.66,5.31-4.47,7.67l2.35-3.04c-1.76,2.24-3.77,4.25-6.01,6.01l3.04-2.35c-2.36,1.81-4.93,3.31-7.67,4.47l3.58-1.51c-2.71,1.12-5.54,1.88-8.45,2.28l3.99-.54c-2.97.38-5.96.39-8.93.01l3.99.54c-2.96-.4-5.84-1.18-8.6-2.32l3.58,1.51c-2.69-1.14-5.2-2.61-7.52-4.38l3.04,2.35c-2.29-1.78-4.34-3.82-6.12-6.11l2.35,3.04c-1.78-2.32-3.25-4.83-4.39-7.51l1.51,3.58-.14-.33c-.46-1.95-1.36-3.65-2.68-5.1-1.06-1.63-2.46-2.92-4.21-3.86-3.22-1.88-7.95-2.68-11.56-1.51s-7.13,3.42-8.96,6.89l-1.51,3.58c-.71,2.66-.71,5.32,0,7.98,1.11,2.66,2.15,5.33,3.61,7.82s3.23,4.69,4.99,6.91c2.8,3.51,6.28,6.3,9.92,8.9s7.89,4.46,12.11,5.92,9.26,2.22,13.91,2.37c1.71.06,3.42-.02,5.12-.22,2.79-.33,5.61-.65,8.34-1.35,1.57-.4,3.1-.92,4.6-1.54,2.58-1.05,5.17-2.1,7.58-3.5,7.37-4.3,13.83-10.78,17.95-18.26,2.08-3.77,3.81-7.92,4.79-12.12,1.07-4.59,1.68-9.51,1.33-14.23s-1.05-9.59-2.87-14l-4.1-9.9c-2.64-6.38-5.29-12.77-7.93-19.15l-10.2-24.65c-3.63-8.76-7.26-17.53-10.88-26.29-3.37-8.15-6.74-16.29-10.12-24.44l-7.75-18.73c-1.28-3.1-2.56-6.19-3.84-9.29-.06-.14-.11-.27-.17-.41-.46-1.95-1.36-3.65-2.68-5.1-1.06-1.63-2.46-2.92-4.21-3.86-3.22-1.88-7.95-2.68-11.56-1.51s-7.13,3.42-8.96,6.89l-1.51,3.58c-.71,2.66-.71,5.32,0,7.98h0Z"/>
      <path class="cls-9" d="M261,317.41c1.38.13,2.75.28,4.12.46l-3.99-.54c9.26,1.25,18.29,3.75,26.9,7.38l-3.58-1.51c8.43,3.6,16.37,8.25,23.64,13.84l-3.04-2.35c6.83,5.31,12.98,11.41,18.31,18.23l-2.35-3.04c5.43,7.03,9.9,14.74,13.38,22.92l-1.51-3.58c3.66,8.72,6.15,17.86,7.44,27.22l-.54-3.99c1.22,9.19,1.26,18.48.06,27.67l.54-3.99c-.83,6.11-1.95,12.17-2.64,18.31-.82,7.3-.12,14.7,1.51,21.85,3.23,14.13,11.53,27.84,22.79,37,3.25,2.64,6.59,5.2,10.22,7.3s7.86,3.93,11.95,5.45c7.02,2.61,14.73,3.83,22.2,3.95s15.58-1.02,22.82-3.5c3.99-1.37,7.95-3.05,11.67-5.04s7.3-4.65,10.73-7.34c23.4-18.39,32.07-52.4,20.73-79.83-4.63-11.19-9.23-22.39-13.85-33.59-6.65-16.13-13.3-32.27-19.95-48.4-2.15-5.21-4.29-10.43-6.46-15.63-4.38-10.52-8.76-21.03-13.15-31.55-6.88-16.5-13.75-33-20.63-49.5-6.73-16.15-13.45-32.29-20.18-48.44l-11.41-27.38c-.18-.43-.36-.86-.54-1.29-.46-1.95-1.36-3.65-2.68-5.1-1.06-1.63-2.46-2.92-4.21-3.86-3.22-1.88-7.95-2.68-11.56-1.51s-7.13,3.42-8.96,6.89-3.02,7.93-1.51,11.56,3.02,7.24,4.53,10.86c3.79,9.11,7.59,18.21,11.38,27.32l15.07,36.17,15.65,37.57c4.31,10.34,8.62,20.69,12.93,31.03l7.1,17.05c1.3,3.13,2.59,6.27,3.88,9.4l13.23,32.09c5,12.13,10,24.26,15,36.39,2.5,6.06,5,12.13,7.5,18.19,1.88,4.57,3.19,9.29,3.86,14.18l-.54-3.99c.62,4.88.62,9.78-.02,14.65l.54-3.99c-.66,4.75-1.91,9.38-3.74,13.82l1.51-3.58c-1.88,4.45-4.32,8.63-7.27,12.46l2.35-3.04c-2.87,3.67-6.16,6.96-9.83,9.83l3.04-2.35c-3.83,2.95-8.01,5.38-12.46,7.27l3.58-1.51c-4.44,1.83-9.06,3.09-13.82,3.74l3.99-.54c-4.91.64-9.86.64-14.78,0l3.99.54c-4.75-.66-9.38-1.91-13.82-3.74l3.58,1.51c-4.45-1.88-8.63-4.32-12.46-7.27l3.04,2.35c-3.67-2.87-6.96-6.16-9.83-9.83l2.35,3.04c-2.95-3.83-5.38-8.01-7.27-12.46l1.51,3.58c-1.83-4.44-3.09-9.06-3.74-13.82l.54,3.99c-.71-5.5-.41-10.8.32-16.27l-.54,3.99c.68-5.01,1.57-9.98,2.23-14.99.82-6.3,1.08-12.66.75-19-.39-7.47-1.43-15-3.11-22.29s-4.25-14.28-7.2-21.17c-10.45-24.43-30.05-44.96-53.67-57.07-14.37-7.37-29.57-11.69-45.63-13.18-3.62-.33-8.13,1.91-10.61,4.39-2.6,2.6-4.56,6.87-4.39,10.61s1.45,7.9,4.39,10.61,6.44,4.01,10.61,4.39h0Z"/>
      <path class="cls-1" d="M440.49,238.26c3.26,7.41,9.35,13.45,16.05,17.82,3.34,2.18,7.12,3.76,10.85,5.1,4.05,1.46,8.24,2.04,12.5,2.57,14.34,1.77,29.6-3.35,39.52-13.99,5.24-5.62,9.06-12.28,11.27-19.64,2.49-8.28,2.57-17.22.73-25.63-.8-3.65-2.34-7.04-3.76-10.48-1.5-3.64-3-7.29-4.5-10.93-3.04-7.39-6.08-14.79-9.12-22.18-3.41-8.29-6.82-16.59-10.23-24.88-1.01-2.46-1.96-4.92-2.82-7.44-.81-2.39-1.65-4.79-1.99-7.3l.54,3.99c-.67-5.28-.63-10.61.07-15.89l-.54,3.99c.76-5.44,2.21-10.73,4.33-15.8l-1.51,3.58c2.02-4.74,4.59-9.19,7.71-13.29l-2.35,3.04c1.3-1.67,2.67-3.28,4.13-4.81,2.7-2.82,4.39-6.67,4.39-10.61,0-3.68-1.63-8.07-4.39-10.61s-6.61-4.57-10.61-4.39-7.83,1.48-10.61,4.39c-8.46,8.87-14.67,19.72-18.1,31.49-1.77,6.09-2.72,12.53-2.97,18.86-.1,2.65-.04,5.3.21,7.94.27,2.91.52,5.89,1.29,8.72,2,7.28,5.15,14.21,8.02,21.17,4.07,9.9,8.14,19.8,12.21,29.7,2.27,5.51,4.53,11.02,6.8,16.53,2.13,5.18,4.55,10.25,5.34,15.85l-.54-3.99c.4,3.14.39,6.29,0,9.42l.54-3.99c-.42,3.09-1.22,6.09-2.41,8.98l1.51-3.58c-1.13,2.66-2.58,5.16-4.35,7.46l2.35-3.04c-1.63,2.08-3.49,3.94-5.57,5.57l3.04-2.35c-2.11,1.62-4.4,2.96-6.84,4.01l3.58-1.51c-2.65,1.11-5.41,1.85-8.25,2.24l3.99-.54c-3.48.44-6.99.35-10.46-.11l3.99.54c-3.49-.49-6.89-1.4-10.14-2.76l3.58,1.51c-2.58-1.11-5.01-2.5-7.25-4.2l3.04,2.35c-2-1.55-3.79-3.33-5.34-5.33l2.35,3.04c-1.34-1.77-2.45-3.67-3.34-5.7-.94-1.75-2.23-3.15-3.86-4.21-1.45-1.33-3.15-2.22-5.1-2.68-3.59-.99-8.37-.54-11.56,1.51s-6.02,5.14-6.89,8.96l-.54,3.99c0,2.71.69,5.23,2.05,7.57h0Z"/>
    </g>
  </g>
  <g id="_图层_6" data-name="图层 6">
    <path class="cls-2" d="M332.81,167.58c3.31,2.29,6.61,4.57,9.92,6.86.47.33.95.65,1.42.98,1.72,1.1,3.58,1.69,5.58,1.78,1.99.45,3.99.36,5.98-.27,1.95-.46,3.65-1.36,5.1-2.68,1.63-1.06,2.92-2.46,3.86-4.21l1.51-3.58c.71-2.66.71-5.32,0-7.98l-1.51-3.58c-1.33-2.25-3.13-4.05-5.38-5.38-3.31-2.29-6.61-4.57-9.92-6.86-.47-.33-.95-.65-1.42-.98-1.72-1.1-3.58-1.69-5.58-1.78-1.99-.45-3.99-.36-5.98.27-1.95.46-3.65,1.36-5.1,2.68-1.63,1.06-2.92,2.46-3.86,4.21l-1.51,3.58c-.71,2.66-.71,5.32,0,7.98l1.51,3.58c1.33,2.25,3.13,4.05,5.38,5.38h0Z"/>
    <path class="cls-8" d="M406.21,167.39c3.31,2.29,6.61,4.57,9.92,6.86.47.33.95.65,1.42.98,1.72,1.1,3.58,1.69,5.58,1.78,1.99.45,3.99.36,5.98-.27,1.95-.46,3.65-1.36,5.1-2.68,1.63-1.06,2.92-2.46,3.86-4.21l1.51-3.58c.71-2.66.71-5.32,0-7.98l-1.51-3.58c-1.33-2.25-3.13-4.05-5.38-5.38-3.31-2.29-6.61-4.57-9.92-6.86-.47-.33-.95-.65-1.42-.98-1.72-1.1-3.58-1.69-5.58-1.78-1.99-.45-3.99-.36-5.98.27-1.95.46-3.65,1.36-5.1,2.68-1.63,1.06-2.92,2.46-3.86,4.21l-1.51,3.58c-.71,2.66-.71,5.32,0,7.98l1.51,3.58c1.33,2.25,3.13,4.05,5.38,5.38h0Z"/>
    <path class="cls-3" d="M481.85,80.58c3.31,2.29,6.61,4.57,9.92,6.86.47.33.95.65,1.42.98,1.72,1.1,3.58,1.69,5.58,1.78,1.99.45,3.99.36,5.98-.27,1.95-.46,3.65-1.36,5.1-2.68,1.63-1.06,2.92-2.46,3.86-4.21l1.51-3.58c.71-2.66.71-5.32,0-7.98l-1.51-3.58c-1.33-2.25-3.13-4.05-5.38-5.38-3.31-2.29-6.61-4.57-9.92-6.86-.47-.33-.95-.65-1.42-.98-1.72-1.1-3.58-1.69-5.58-1.78-1.99-.45-3.99-.36-5.98.27-1.95.46-3.65,1.36-5.1,2.68-1.63,1.06-2.92,2.46-3.86,4.21l-1.51,3.58c-.71,2.66-.71,5.32,0,7.98l1.51,3.58c1.33,2.25,3.13,4.05,5.38,5.38h0Z"/>
    <path class="cls-7" d="M242.09,307.52c3.31,2.29,6.61,4.57,9.92,6.86.47.33.95.65,1.42.98,1.72,1.1,3.58,1.69,5.58,1.78,1.99.45,3.99.36,5.98-.27,1.95-.46,3.65-1.36,5.1-2.68,1.63-1.06,2.92-2.46,3.86-4.21l1.51-3.58c.71-2.66.71-5.32,0-7.98l-1.51-3.58c-1.33-2.25-3.13-4.05-5.38-5.38-3.31-2.29-6.61-4.57-9.92-6.86-.47-.33-.95-.65-1.42-.98-1.72-1.1-3.58-1.69-5.58-1.78-1.99-.45-3.99-.36-5.98.27-1.95.46-3.65,1.36-5.1,2.68-1.63,1.06-2.92,2.46-3.86,4.21l-1.51,3.58c-.71,2.66-.71,5.32,0,7.98l1.51,3.58c1.33,2.25,3.13,4.05,5.38,5.38h0Z"/>
  </g>
  <g id="fore">
    <g>
      <path class="cls-6" d="M399.32,158.43c1.91,4.61,3.82,9.22,5.72,13.82l13.56,32.77c5.44,13.14,10.88,26.28,16.32,39.42,4.56,11.02,9.12,22.04,13.69,33.06,1.99,4.8,4.06,9.58,5.97,14.41.93,2.35,1.51,4.85,1.86,7.34l-.54-3.99c.39,3.03.4,6.07,0,9.1l.54-3.99c-.4,2.91-1.17,5.73-2.28,8.45l1.51-3.58c-1.16,2.74-2.66,5.31-4.47,7.67l2.35-3.04c-1.76,2.24-3.77,4.25-6.01,6.01l3.04-2.35c-2.36,1.81-4.93,3.31-7.67,4.47l3.58-1.51c-2.71,1.12-5.54,1.88-8.45,2.28l3.99-.54c-2.97.38-5.96.39-8.93.01l3.99.54c-2.96-.4-5.84-1.18-8.6-2.32l3.58,1.51c-2.69-1.14-5.2-2.61-7.52-4.38l3.04,2.35c-2.29-1.78-4.34-3.82-6.12-6.11l2.35,3.04c-1.78-2.32-3.25-4.83-4.39-7.51l1.51,3.58-.14-.33c-.46-1.95-1.36-3.65-2.68-5.1-1.06-1.63-2.46-2.92-4.21-3.86-3.22-1.88-7.95-2.68-11.56-1.51s-7.13,3.42-8.96,6.89l-1.51,3.58c-.71,2.66-.71,5.32,0,7.98,1.11,2.66,2.15,5.33,3.61,7.82s3.23,4.69,4.99,6.91c2.8,3.51,6.28,6.3,9.92,8.9s7.89,4.46,12.11,5.92,9.26,2.22,13.91,2.37c1.71.06,3.42-.02,5.12-.22,2.79-.33,5.61-.65,8.34-1.35,1.57-.4,3.1-.92,4.6-1.54,2.58-1.05,5.17-2.1,7.58-3.5,7.37-4.3,13.83-10.78,17.95-18.26,2.08-3.77,3.81-7.92,4.79-12.12,1.07-4.59,1.68-9.51,1.33-14.23s-1.05-9.59-2.87-14l-4.1-9.9c-2.64-6.38-5.29-12.77-7.93-19.15l-10.2-24.65c-3.63-8.76-7.26-17.53-10.88-26.29-3.37-8.15-6.74-16.29-10.12-24.44l-7.75-18.73c-1.28-3.1-2.56-6.19-3.84-9.29-.06-.14-.11-.27-.17-.41-.46-1.95-1.36-3.65-2.68-5.1-1.06-1.63-2.46-2.92-4.21-3.86-3.22-1.88-7.95-2.68-11.56-1.51s-7.13,3.42-8.96,6.89l-1.51,3.58c-.71,2.66-.71,5.32,0,7.98h0Z"/>
      <path class="cls-5" d="M249.66,309.57c1.38.13,2.75.28,4.12.46l-3.99-.54c9.26,1.25,18.29,3.75,26.9,7.38l-3.58-1.51c8.43,3.6,16.37,8.25,23.64,13.84l-3.04-2.35c6.83,5.31,12.98,11.41,18.31,18.23l-2.35-3.04c5.43,7.03,9.9,14.74,13.38,22.92l-1.51-3.58c3.66,8.72,6.15,17.86,7.44,27.22l-.54-3.99c1.22,9.19,1.26,18.48.06,27.67l.54-3.99c-.83,6.11-1.95,12.17-2.64,18.31-.82,7.3-.12,14.7,1.51,21.85,3.23,14.13,11.53,27.84,22.79,37,3.25,2.64,6.59,5.2,10.22,7.3s7.86,3.93,11.95,5.45c7.02,2.61,14.73,3.83,22.2,3.95,7.64.13,15.58-1.02,22.82-3.5,3.99-1.37,7.95-3.05,11.67-5.04s7.3-4.65,10.73-7.34c23.4-18.39,32.07-52.4,20.73-79.83-4.63-11.19-9.23-22.39-13.85-33.59-6.65-16.13-13.3-32.27-19.95-48.4-2.15-5.21-4.29-10.43-6.46-15.63-4.38-10.52-8.76-21.03-13.15-31.55-6.88-16.5-13.75-33-20.63-49.5s-13.45-32.29-20.18-48.44c-3.8-9.13-7.61-18.25-11.41-27.38-.18-.43-.36-.86-.54-1.29-.46-1.95-1.36-3.65-2.68-5.1-1.06-1.63-2.46-2.92-4.21-3.86-3.22-1.88-7.95-2.68-11.56-1.51s-7.13,3.42-8.96,6.89-3.02,7.93-1.51,11.56,3.02,7.24,4.53,10.86c3.79,9.11,7.59,18.21,11.38,27.32,5.02,12.06,10.05,24.12,15.07,36.17,5.22,12.52,10.44,25.05,15.65,37.57,4.31,10.34,8.62,20.69,12.93,31.03l7.1,17.05c1.3,3.13,2.59,6.27,3.88,9.4l13.23,32.09c5,12.13,10,24.26,15,36.39,2.5,6.06,5,12.13,7.5,18.19,1.88,4.57,3.19,9.29,3.86,14.18l-.54-3.99c.62,4.88.62,9.78-.02,14.65l.54-3.99c-.66,4.75-1.91,9.38-3.74,13.82l1.51-3.58c-1.88,4.45-4.32,8.63-7.27,12.46l2.35-3.04c-2.87,3.67-6.16,6.96-9.83,9.83l3.04-2.35c-3.83,2.95-8.01,5.38-12.46,7.27l3.58-1.51c-4.44,1.83-9.06,3.09-13.82,3.74l3.99-.54c-4.91.64-9.86.64-14.78,0l3.99.54c-4.75-.66-9.38-1.91-13.82-3.74l3.58,1.51c-4.45-1.88-8.63-4.32-12.46-7.27l3.04,2.35c-3.67-2.87-6.96-6.16-9.83-9.83l2.35,3.04c-2.95-3.83-5.38-8.01-7.27-12.46l1.51,3.58c-1.83-4.44-3.09-9.06-3.74-13.82l.54,3.99c-.71-5.5-.41-10.8.32-16.27l-.54,3.99c.68-5.01,1.57-9.98,2.23-14.99.82-6.3,1.08-12.66.75-19-.39-7.47-1.43-15-3.11-22.29s-4.25-14.28-7.2-21.17c-10.45-24.43-30.05-44.96-53.67-57.07-14.37-7.37-29.57-11.69-45.63-13.18-3.62-.33-8.13,1.91-10.61,4.39-2.6,2.6-4.56,6.87-4.39,10.61s1.45,7.9,4.39,10.61,6.44,4.01,10.61,4.39h0Z"/>
      <path class="cls-4" d="M429.15,230.42c3.26,7.41,9.35,13.45,16.05,17.82,3.34,2.18,7.12,3.76,10.85,5.1,4.05,1.46,8.24,2.04,12.5,2.57,14.34,1.77,29.6-3.35,39.52-13.99,5.24-5.62,9.06-12.28,11.27-19.64,2.49-8.28,2.57-17.22.73-25.63-.8-3.65-2.34-7.04-3.76-10.48-1.5-3.64-3-7.29-4.5-10.93-3.04-7.39-6.08-14.79-9.12-22.18-3.41-8.29-6.82-16.59-10.23-24.88-1.01-2.46-1.96-4.92-2.82-7.44-.81-2.39-1.65-4.79-1.99-7.3l.54,3.99c-.67-5.28-.63-10.61.07-15.89l-.54,3.99c.76-5.44,2.21-10.73,4.33-15.8l-1.51,3.58c2.02-4.74,4.59-9.19,7.71-13.29l-2.35,3.04c1.3-1.67,2.67-3.28,4.13-4.81,2.7-2.82,4.39-6.67,4.39-10.61,0-3.68-1.63-8.07-4.39-10.61s-6.61-4.57-10.61-4.39-7.83,1.48-10.61,4.39c-8.46,8.87-14.67,19.72-18.1,31.49-1.77,6.09-2.72,12.53-2.97,18.86-.1,2.65-.04,5.3.21,7.94.27,2.91.52,5.89,1.29,8.72,2,7.28,5.15,14.21,8.02,21.17,4.07,9.9,8.14,19.8,12.21,29.7,2.27,5.51,4.53,11.02,6.8,16.53,2.13,5.18,4.55,10.25,5.34,15.85l-.54-3.99c.4,3.14.39,6.29,0,9.42l.54-3.99c-.42,3.09-1.22,6.09-2.41,8.98l1.51-3.58c-1.13,2.66-2.58,5.16-4.35,7.46l2.35-3.04c-1.63,2.08-3.49,3.94-5.57,5.57l3.04-2.35c-2.11,1.62-4.4,2.96-6.84,4.01l3.58-1.51c-2.65,1.11-5.41,1.85-8.25,2.24l3.99-.54c-3.48.44-6.99.35-10.46-.11l3.99.54c-3.49-.49-6.89-1.4-10.14-2.76l3.58,1.51c-2.58-1.11-5.01-2.5-7.25-4.2l3.04,2.35c-2-1.55-3.79-3.33-5.34-5.33l2.35,3.04c-1.34-1.77-2.45-3.67-3.34-5.7-.94-1.75-2.23-3.15-3.86-4.21-1.45-1.33-3.15-2.22-5.1-2.68-3.59-.99-8.37-.54-11.56,1.51s-6.02,5.14-6.89,8.96l-.54,3.99c0,2.71.69,5.23,2.05,7.57h0Z"/>
    </g>
  </g>
</svg>